<svg xmlns="http://www.w3.org/2000/svg" width="72.909" height="33.667" viewBox="0 0 72.909 33.667"><defs><style>.a{fill:#00287a;}.b{fill:#0090df;}</style></defs><g transform="translate(-22.777 -19.015)"><g transform="translate(58.096 25.442)"><g transform="translate(0.926 16.518)"><g transform="translate(13.865 0.211)"><g transform="translate(2.94 0.032)"><rect class="a" width="0.588" height="3.117"/><path class="a" d="M189.115,92.918a.88.88,0,0,0-.529.168v.423a.431.431,0,0,1,.326-.135c.379,0,.382.375.382.65v1.207h.589V93.8C189.883,93.3,189.651,92.918,189.115,92.918Z" transform="translate(-187.807 -92.114)"/></g><g transform="translate(5.41 0.887)"><path class="a" d="M195.081,94.808a.43.43,0,0,1-.316.122c-.377,0-.383-.373-.383-.649v-1.2h-.587V94.5c0,.509.233.886.767.886a.807.807,0,0,0,.519-.174Z" transform="translate(-193.794 -93.077)"/><rect class="a" width="0.598" height="2.261" transform="translate(1.478 0)"/></g><g transform="translate(7.927 0.838)"><path class="a" d="M204.5,92.925a.8.8,0,0,0-.519.178v.4a.427.427,0,0,1,.318-.124c.377,0,.381.373.381.649v1.2h.589V93.813C205.266,93.3,205.032,92.925,204.5,92.925Z" transform="translate(-203.189 -92.925)"/><rect class="a" width="0.599" height="2.261" transform="translate(0 0.049)"/></g><path class="a" d="M178.715,90.89a1.129,1.129,0,0,1,.888.435v-.678a1.28,1.28,0,0,0-.892-.3,1.574,1.574,0,0,0-1.582,1.6h0a1.573,1.573,0,0,0,1.582,1.6,1.283,1.283,0,0,0,.892-.3v-.68a1.127,1.127,0,0,1-.888.438,1.055,1.055,0,0,1,0-2.107Z" transform="translate(-177.13 -90.344)"/><g transform="translate(10.463)"><g transform="translate(10.261 0.838)"><path class="a" d="M243.911,92.925a.8.8,0,0,0-.519.178v.4a.431.431,0,0,1,.318-.124c.377,0,.381.373.381.649v1.2h.588V93.813C244.679,93.3,244.446,92.925,243.911,92.925Z" transform="translate(-242.604 -92.925)"/><rect class="a" width="0.597" height="2.261" transform="translate(0 0.049)"/></g><g transform="translate(2.9 0.032)"><rect class="a" width="0.626" height="3.117"/><path class="a" d="M221.345,92.918a.874.874,0,0,0-.529.168v.423a.423.423,0,0,1,.326-.135c.377,0,.381.375.381.65v1.207h.589V93.8C222.112,93.3,221.88,92.918,221.345,92.918Z" transform="translate(-219.997 -92.114)"/></g><path class="a" d="M210.942,90.89a1.133,1.133,0,0,1,.89.435v-.678a1.277,1.277,0,0,0-.891-.3,1.574,1.574,0,0,0-1.581,1.6h0a1.572,1.572,0,0,0,1.581,1.6,1.28,1.28,0,0,0,.891-.3v-.68a1.131,1.131,0,0,1-.89.438,1.055,1.055,0,0,1,0-2.107Z" transform="translate(-209.359 -90.344)"/><path class="a" d="M234.047,92.918a1.181,1.181,0,1,0,1.185,1.182A1.129,1.129,0,0,0,234.047,92.918Zm0,1.907c-.382,0-.565-.389-.565-.725s.183-.726.565-.726.57.379.57.726S234.433,94.825,234.047,94.825Z" transform="translate(-225.235 -92.082)"/><path class="a" d="M226.7,92.918a1.185,1.185,0,0,0,.12,2.366,1.307,1.307,0,0,0,.86-.278v-.5a1.383,1.383,0,0,1-.86.347c-.155,0-.656-.021-.656-.742s.392-.765.536-.765c.33,0,.462.246.479.532h-.83a1.461,1.461,0,0,0,0,.4h1.385C227.8,93.554,227.51,92.918,226.7,92.918Z" transform="translate(-220.342 -92.082)"/></g></g><g transform="translate(8.869)"><path class="a" d="M169.762,91.207h-.434v-.429h.434v-.316a.739.739,0,0,1,.784-.768.911.911,0,0,1,.318.048v.487a.464.464,0,0,0-.211-.054.284.284,0,0,0-.3.323v.28h.512v.429h-.512v1.848h-.59Z" transform="translate(-166.865 -89.694)"/><path class="a" d="M162.922,92.923a1.181,1.181,0,1,0,1.184,1.182A1.128,1.128,0,0,0,162.922,92.923Zm0,1.907c-.382,0-.566-.388-.566-.725s.185-.726.566-.726.57.38.57.726S163.308,94.83,162.922,94.83Z" transform="translate(-161.742 -91.875)"/></g><g transform="translate(0 0.214)"><path class="a" d="M146.715,92.212h-.434v-.429h.434v-.411l.587-.19v.6h.523v.429H147.3v1.1c0,.21.1.343.294.343a.436.436,0,0,0,.269-.076v.466a1.193,1.193,0,0,1-.435.066.664.664,0,0,1-.715-.734Z" transform="translate(-142.431 -90.913)"/><rect class="a" width="0.588" height="0.563" transform="translate(2.938 0.031)"/><rect class="a" width="0.588" height="2.277" transform="translate(2.938 0.87)"/><path class="a" d="M136,90.9a1.129,1.129,0,0,1,.891.437v-.68a1.281,1.281,0,0,0-.891-.3,1.573,1.573,0,0,0-1.58,1.6h0a1.572,1.572,0,0,0,1.58,1.6,1.281,1.281,0,0,0,.891-.3v-.679A1.131,1.131,0,0,1,136,93a1.055,1.055,0,0,1,0-2.107Z" transform="translate(-134.423 -90.352)"/><path class="a" d="M154.219,93.033l-.84,2.409c-.1.27-.239.324-.385.324a.814.814,0,0,1-.271-.072v.467a.762.762,0,0,0,.329.071.831.831,0,0,0,.848-.607l.905-2.593Z" transform="translate(-146.781 -92.163)"/><g transform="translate(5.7 0.87)"><path class="a" d="M153.039,94.389l-.474-1.356h-.585l.767,2.192Z" transform="translate(-151.98 -93.033)"/></g></g></g><path class="a" d="M137.651,70.872V68.4h-1.6v2.858a1.121,1.121,0,0,0,1.281,1.209h8.353V71.2h-7.7C137.742,71.2,137.651,71.143,137.651,70.872Z" transform="translate(-134.596 -58.794)"/><path class="a" d="M131.57,60.742V62h5.463v2.51h.891c.5,0,.71-.194.71-.572V62h5.081V60.742Z" transform="translate(-131.57 -53.623)"/><path class="a" d="M134.428,43.969l.278.765h0c.146.4.407.44.809.364,1.437-.3,4.3-1.2,4.775-3.714h4.119V40.122h-4.036V38.813h-1.6v1.309h-4.038v1.262H138.6C137.835,43.493,134.635,43.943,134.428,43.969Z" transform="translate(-133.5 -38.813)"/><path class="a" d="M156.426,50.607c-.185-.024-2.755-.386-3.843-1.964h-.024a4.609,4.609,0,0,1-.792,1.459,7.89,7.89,0,0,0,3.572,1.636c.4.075.664.033.81-.364h0Z" transform="translate(-145.21 -45.45)"/><g transform="translate(13.308)"><path class="a" d="M194.685,44.432h2.4V49.3h.89c.5,0,.711-.195.711-.572V39.456h-1.6V43.17h-2.4Z" transform="translate(-187.503 -39.247)"/><path class="a" d="M181.752,70.193c-.24,0-.331-.06-.331-.331V66.9h-1.6v3.344a1.121,1.121,0,0,0,1.281,1.209h7.7V70.193Z" transform="translate(-177.465 -57.784)"/><path class="a" d="M177.565,41.384h2.973V40.122h-3V38.813h-1.6v1.309h-3v1.262h2.946c0,3.242-3.137,4.428-3.314,4.5l.375.651c.213.368.4.544.917.3C175.093,46.187,177.565,44.517,177.565,41.384Z" transform="translate(-172.562 -38.813)"/><path class="a" d="M187.573,52.432a5.7,5.7,0,0,1-.808,1.663,7.876,7.876,0,0,0,2.44,1.932c.522.243.705.067.917-.3l.376-.651A5.543,5.543,0,0,1,187.573,52.432Z" transform="translate(-182.154 -48.011)"/></g><g transform="translate(26.272 0.209)"><path class="a" d="M242.427,39.456V52.891h.831c.5,0,.769-.24.769-.6V39.456Z" transform="translate(-232.71 -39.456)"/><path class="a" d="M217.67,40.747h-1.6V42.2a7.684,7.684,0,0,1-3.575,6.9l.488.583a.672.672,0,0,0,1.059.152,8.5,8.5,0,0,0,3.627-7.014Z" transform="translate(-212.496 -40.328)"/><path class="a" d="M228.041,53.963a8.831,8.831,0,0,1-.827,2.195,8.855,8.855,0,0,0,2.423,2.6.671.671,0,0,0,1.058-.152l.488-.583A7.25,7.25,0,0,1,228.041,53.963Z" transform="translate(-222.436 -49.253)"/></g></g><path class="b" d="M51.389,24.666a1.7,1.7,0,0,0-.759-1.536,16.834,16.834,0,1,0,0,25.431c.7-.652.756-.812.76-1.932h0V36.591l-9.833,8.251a4.628,4.628,0,0,1-5.895-7.135l2.215-1.859-2.215-1.858a4.628,4.628,0,0,1,5.895-7.136L51.395,35.1V24.666Z" transform="translate(0 0)"/></g></svg>