<svg xmlns="http://www.w3.org/2000/svg" xmlns:xlink="http://www.w3.org/1999/xlink" width="113" height="123.822" viewBox="0 0 113 123.822">
  <defs>
    <linearGradient id="linear-gradient" x1="-55.653" y1="-137.85" x2="-55.625" y2="-137.85" gradientUnits="objectBoundingBox">
      <stop offset="0" stop-color="#f2d75b"/>
      <stop offset="1" stop-color="#d5b138"/>
    </linearGradient>
    <linearGradient id="linear-gradient-2" x1="-55.582" y1="-137.282" x2="-55.553" y2="-137.282" xlink:href="#linear-gradient"/>
    <linearGradient id="linear-gradient-3" x1="-55.653" y1="-136.699" x2="-55.625" y2="-136.699" xlink:href="#linear-gradient"/>
  </defs>
  <g id="그룹_5701" data-name="그룹 5701" transform="translate(-718.838 -2323.747)">
    <g id="그룹_5667" data-name="그룹 5667" transform="translate(720.556 2384.167)" opacity="0.1">
      <path id="패스_16469" data-name="패스 16469" d="M777.346,2381.26c13.111,7.57,13.186,19.841.161,27.409s-34.21,7.565-47.32,0-13.17-19.841-.154-27.406S764.238,2373.691,777.346,2381.26Z" transform="translate(-720.312 -2375.586)"/>
    </g>
    <g id="그룹_5668" data-name="그룹 5668" transform="translate(760.466 2408.81)" opacity="0.1">
      <path id="패스_16470" data-name="패스 16470" d="M811.588,2402.4c13.111,7.569,13.186,19.84.161,27.41s-34.21,7.567-47.32,0-13.17-19.841-.155-27.406S798.484,2394.836,811.588,2402.4Z" transform="translate(-754.554 -2396.73)"/>
    </g>
    <g id="그룹_5673" data-name="그룹 5673" transform="translate(721.635 2370.616)">
      <g id="그룹_5671" data-name="그룹 5671">
        <g id="그룹_5669" data-name="그룹 5669" transform="translate(0 19.286)">
          <path id="패스_16471" data-name="패스 16471" d="M788.175,2380.7l-.023,8.141c-.014,4.927-3.252,9.846-9.72,13.606-13.019,7.565-34.211,7.565-47.32,0-6.594-3.807-9.887-8.807-9.873-13.8l.023-8.141c-.014,4.992,3.28,9.992,9.873,13.8,13.111,7.57,34.3,7.57,47.32,0C784.923,2390.546,788.16,2385.626,788.175,2380.7Z" transform="translate(-721.238 -2380.507)" fill="#deb800"/>
        </g>
        <g id="그룹_5670" data-name="그룹 5670" transform="translate(0.022)">
          <path id="패스_16472" data-name="패스 16472" d="M778.291,2369.632c13.111,7.57,13.186,19.841.161,27.41s-34.21,7.565-47.32,0-13.17-19.841-.154-27.406S765.187,2362.067,778.291,2369.632Z" transform="translate(-721.257 -2363.96)" fill="#ffdf44"/>
        </g>
      </g>
      <g id="그룹_5672" data-name="그룹 5672" transform="translate(14.716 6.064)">
        <path id="패스_16473" data-name="패스 16473" d="M771.346,2383.749l2.194,1.267-3.368,1.957-2.892-1.669-19.782,7.563-.22-.127-3.569-2.061-.226-.131,10.716-9.47-16.317,6.237-.221-.128-3.569-2.061-.226-.131,12.993-11.483-2.888-1.667,3.368-1.958,2.189,1.264,2.252-1.99,3.79,2.189-2.252,1.99,4.621,2.668,3.427-1.311,3.795,2.191-2.226,2,4.62,2.668,3.428-1.31,3.794,2.191Zm-17.25,2.958,9.391-3.592-3.225-1.865-6.166,5.455m-9.617-5.552,9.391-3.592-3.224-1.865-6.167,5.453" transform="translate(-733.864 -2369.163)" fill="url(#linear-gradient)"/>
      </g>
    </g>
    <g id="그룹_5678" data-name="그룹 5678" transform="translate(718.838 2356.644)">
      <g id="그룹_5676" data-name="그룹 5676">
        <g id="그룹_5674" data-name="그룹 5674" transform="translate(0 19.285)">
          <path id="패스_16474" data-name="패스 16474" d="M785.776,2368.711l-.023,8.141c-.014,4.927-3.252,9.846-9.721,13.605-13.019,7.565-34.21,7.565-47.32,0-6.594-3.807-9.888-8.807-9.874-13.8l.023-8.141c-.014,4.992,3.28,9.992,9.874,13.8,13.111,7.57,34.3,7.57,47.32,0C782.524,2378.558,785.76,2373.638,785.776,2368.711Z" transform="translate(-718.838 -2368.518)" fill="#deb800"/>
        </g>
        <g id="그룹_5675" data-name="그룹 5675" transform="translate(0.022)">
          <path id="패스_16475" data-name="패스 16475" d="M775.891,2357.645c13.111,7.57,13.186,19.841.161,27.409s-34.209,7.565-47.32,0-13.17-19.841-.154-27.406S762.787,2350.079,775.891,2357.645Z" transform="translate(-718.856 -2351.972)" fill="#ffdf44"/>
        </g>
      </g>
      <g id="그룹_5677" data-name="그룹 5677" transform="translate(14.717 6.066)">
        <path id="패스_16476" data-name="패스 16476" d="M768.946,2371.761l2.194,1.266-3.368,1.957-2.892-1.669-19.782,7.563-.22-.127-3.569-2.061-.225-.131,10.715-9.47-16.317,6.237-.221-.128-3.569-2.061-.225-.131,12.993-11.482-2.887-1.663,3.368-1.958,2.189,1.263,2.252-1.99,3.79,2.189-2.252,1.99,4.621,2.668,3.427-1.311,3.795,2.191-2.226,2.005,4.62,2.668,3.428-1.31,3.795,2.191Zm-17.25,2.958,9.391-3.592-3.225-1.865-6.167,5.455m-9.617-5.552,9.391-3.593-3.224-1.865-6.167,5.453" transform="translate(-731.465 -2357.177)" fill="url(#linear-gradient-2)"/>
      </g>
    </g>
    <g id="그룹_5683" data-name="그룹 5683" transform="translate(721.635 2343.326)">
      <g id="그룹_5681" data-name="그룹 5681">
        <g id="그룹_5679" data-name="그룹 5679" transform="translate(0 19.284)">
          <path id="패스_16477" data-name="패스 16477" d="M788.175,2357.284l-.023,8.141c-.014,4.927-3.252,9.846-9.72,13.605-13.019,7.565-34.211,7.565-47.32,0-6.594-3.807-9.887-8.807-9.873-13.8l.023-8.141c-.014,4.992,3.28,9.992,9.873,13.8,13.111,7.569,34.3,7.569,47.32,0C784.923,2367.131,788.16,2362.215,788.175,2357.284Z" transform="translate(-721.238 -2357.091)" fill="#deb800"/>
        </g>
        <g id="그룹_5680" data-name="그룹 5680" transform="translate(0.022)">
          <path id="패스_16478" data-name="패스 16478" d="M778.291,2346.219c13.111,7.569,13.186,19.839.161,27.409s-34.21,7.565-47.32,0-13.17-19.841-.154-27.406S765.187,2338.652,778.291,2346.219Z" transform="translate(-721.257 -2340.546)" fill="#ffdf44"/>
        </g>
      </g>
      <g id="그룹_5682" data-name="그룹 5682" transform="translate(14.716 6.062)">
        <path id="패스_16479" data-name="패스 16479" d="M771.346,2360.333l2.194,1.267-3.368,1.958-2.892-1.67-19.782,7.563-.22-.127-3.569-2.061-.226-.131,10.716-9.469L737.88,2363.9l-.221-.128-3.569-2.061-.226-.131,12.993-11.483-2.888-1.667,3.368-1.957,2.189,1.263,2.252-1.99,3.79,2.188-2.252,1.99,4.621,2.668,3.427-1.311,3.795,2.191-2.226,2,4.62,2.668,3.428-1.31,3.794,2.191Zm-17.25,2.958,9.391-3.592-3.225-1.865-6.166,5.455m-9.617-5.553,9.391-3.592-3.224-1.865-6.167,5.454" transform="translate(-733.864 -2345.747)" fill="url(#linear-gradient-3)"/>
      </g>
    </g>
    <g id="그룹_5688" data-name="그룹 5688" transform="translate(723.338 2329.517)">
      <g id="그룹_5686" data-name="그룹 5686">
        <g id="그룹_5684" data-name="그룹 5684" transform="translate(0 19.283)">
          <path id="패스_16480" data-name="패스 16480" d="M789.636,2345.436l-.023,8.141c-.013,4.927-3.251,9.846-9.72,13.6-13.019,7.565-34.209,7.565-47.32,0-6.594-3.807-9.888-8.807-9.873-13.8l.023-8.141c-.014,4.992,3.279,9.992,9.873,13.8,13.11,7.57,34.3,7.569,47.32,0C786.385,2355.283,789.623,2350.363,789.636,2345.436Z" transform="translate(-722.699 -2345.242)" fill="#deb800"/>
        </g>
        <g id="그룹_5685" data-name="그룹 5685" transform="translate(0.022)">
          <path id="패스_16481" data-name="패스 16481" d="M779.752,2334.369c13.111,7.57,13.186,19.84.161,27.41s-34.21,7.565-47.32,0-13.17-19.841-.155-27.406S766.648,2326.8,779.752,2334.369Z" transform="translate(-722.718 -2328.697)" fill="#ffdf44"/>
        </g>
      </g>
      <g id="그룹_5687" data-name="그룹 5687" transform="translate(14.717 6.063)">
        <path id="패스_16482" data-name="패스 16482" d="M772.807,2348.487l2.195,1.267-3.368,1.957-2.892-1.669-19.782,7.563-.221-.127-3.569-2.06-.225-.131,10.715-9.47-16.317,6.236-.221-.127-3.569-2.06-.225-.131,12.993-11.484-2.888-1.668,3.368-1.957,2.189,1.263,2.253-1.99,3.79,2.188-2.252,1.99,4.621,2.667,3.427-1.311,3.795,2.191-2.226,2,4.62,2.667,3.428-1.311,3.794,2.191Zm-17.25,2.958,9.391-3.592-3.224-1.865-6.167,5.453m-9.617-5.552,9.391-3.593-3.224-1.865-6.168,5.454" transform="translate(-735.326 -2333.899)" fill="#deb800"/>
      </g>
    </g>
    <g id="그룹_5693" data-name="그룹 5693" transform="translate(768.347 2384.427)">
      <g id="그룹_5691" data-name="그룹 5691">
        <g id="그룹_5689" data-name="그룹 5689" transform="translate(0 5.455)">
          <path id="패스_16483" data-name="패스 16483" d="M822.481,2419.959l-4.8,6.575c-2.906,3.978-8.416,6.061-15.859,5.3-14.98-1.526-32.129-13.973-38.293-27.8-3.1-6.955-2.828-12.937.116-16.968l4.8-6.575c-2.944,4.031-3.216,10.013-.116,16.968,6.163,13.828,23.31,26.276,38.292,27.8C814.066,2426.018,819.576,2423.938,822.481,2419.959Z" transform="translate(-761.316 -2380.49)" fill="#deb800"/>
        </g>
        <g id="그룹_5690" data-name="그룹 5690" transform="translate(4.805)">
          <path id="패스_16484" data-name="패스 16484" d="M821.911,2403.759c6.163,13.828-.985,23.8-15.968,22.275s-32.129-13.973-38.292-27.8.994-23.8,15.975-22.27S815.75,2389.938,821.911,2403.759Z" transform="translate(-765.439 -2375.81)" fill="#ffdf44"/>
        </g>
      </g>
      <g id="그룹_5692" data-name="그룹 5692" transform="translate(17.483 11.509)">
        <path id="패스_16485" data-name="패스 16485" d="M807.382,2411.39l1.031,2.314-3.877-.4-1.359-3.05-20.453-5.5-.1-.233-1.678-3.765-.106-.233,14.234-1.368L778.2,2394.62l-.1-.233-1.678-3.765-.1-.233,17.26-1.66-1.358-3.045,3.875.395,1.029,2.309,2.991-.286,1.782,4-2.992.287,2.173,4.874,3.543.951,1.784,4-2.979.315,2.171,4.873,3.543.952,1.784,4Zm-15.7-7.739,9.71,2.61-1.515-3.4-8.195.791m-4.521-10.14,9.71,2.61-1.515-3.4-8.195.791" transform="translate(-776.316 -2385.684)" fill="#deb800"/>
      </g>
    </g>
    <g id="그룹_5700" data-name="그룹 5700" transform="translate(727.674 2323.747)">
      <path id="패스_16486" data-name="패스 16486" d="M768.34,2357.878a8.5,8.5,0,0,0,3.221-1.256,3.223,3.223,0,0,0,1.41-2.992c-.287-1.647-2.1-2.5-3.7-2.985a91.8,91.8,0,0,0-13.233-2.669c-5.662-.856-11.416-1.712-17.091-.951a5.423,5.423,0,0,0-1.592.4,5.942,5.942,0,0,0-1.742,1.47,10.293,10.293,0,0,0-2.162,3.036,5.2,5.2,0,0,0,.3,4.377c2.073,3.707,7.983,2.827,11.557,2.994a108.66,108.66,0,0,0,14.739-.143A61.845,61.845,0,0,0,768.34,2357.878Z" transform="translate(-725.312 -2319.943)" opacity="0.1" style="mix-blend-mode: normal;isolation: isolate"/>
      <path id="패스_16487" data-name="패스 16487" d="M735.62,2368.276a12,12,0,0,0-.136,2.735l-2.134-.428.486-2.969Z" transform="translate(-725.271 -2316.486)" fill="#ffc7c0"/>
      <path id="패스_16488" data-name="패스 16488" d="M733.723,2369.01s1.108.176,1.184.7.479.413.479.413l.612-.21a3.025,3.025,0,0,1-.314,1.333s-3.263,2.923-4.312,2.172c-1.205-.865,1.4-2.914,1.4-2.914A2.043,2.043,0,0,0,733.723,2369.01Z" transform="translate(-725.652 -2316.255)" fill="#30366b"/>
      <path id="패스_16489" data-name="패스 16489" d="M750.693,2350.875s.794,2.482-2.978,3.971a60.01,60.01,0,0,0-8.422,4.473l-2.78,12.564a2.9,2.9,0,0,1-3.573-1.29l2.655-13.745a1.912,1.912,0,0,1,.759-1.2l6.035-4.375,2.547-2.979Z" transform="translate(-725.339 -2319.684)" fill="#435279"/>
      <path id="패스_16490" data-name="패스 16490" d="M753.1,2335.738s-.4,13.9-3.38,18.065a23.782,23.782,0,0,1-4.116-.83c-2.582-.762-5.635-2.174-6.807-4.73a56.407,56.407,0,0,0,1.789-12.51,13.759,13.759,0,0,1,.29-2.612,3.526,3.526,0,0,1,1.5-2.55l7.744,3.08Z" transform="translate(-724.37 -2322.617)" fill="#fff"/>
      <path id="패스_16491" data-name="패스 16491" d="M738.715,2337.788l-1.787,4.169,2.184.993,1.853-4.235Z" transform="translate(-724.679 -2321.423)" fill="#ffc7c0"/>
      <path id="패스_16492" data-name="패스 16492" d="M749.253,2341.65l-.409,5.78,2.2,1.963.794-7.744Z" transform="translate(-722.707 -2320.783)" fill="#ffc7c0"/>
      <path id="패스_16493" data-name="패스 16493" d="M742.517,2330.574s-1.787-.2-2.582,2.78l-1.981,5.56s.4,2.581,3.773,1.981" transform="translate(-724.509 -2322.617)" fill="#fff"/>
      <path id="패스_16494" data-name="패스 16494" d="M751.492,2335s.794.4,1.191,2.78l.794,5.361s-2.582,1.787-4.766,0l-.2-3.773" transform="translate(-722.762 -2321.883)" fill="#fff"/>
      <path id="패스_16495" data-name="패스 16495" d="M730.907,2365.835a12,12,0,0,0-.136,2.734l-2.134-.428.486-2.968Z" transform="translate(-726.052 -2316.89)" fill="#ffc7c0"/>
      <path id="패스_16496" data-name="패스 16496" d="M740.554,2351.13l-5.759,3.276-2.843,15.152s-2.932.565-3.73-1.42l2.476-15.352a2.8,2.8,0,0,1,.889-1.733l4.708-4.312Z" transform="translate(-726.12 -2319.941)" fill="#435279"/>
      <path id="패스_16497" data-name="패스 16497" d="M748.083,2332.117l-.794-2.755s-1.811,1.241-2.556.67l-.174,1.588-.35,2.656.844.173h2.233Z" transform="translate(-723.474 -2322.817)" fill="#ffc7c0"/>
      <path id="패스_16499" data-name="패스 16499" d="M736.913,2344.214l11.595,6.485-6.16,3.7-11.888-6.376Z" transform="translate(-725.75 -2320.359)" fill="#f9fbfa"/>
      <path id="패스_16500" data-name="패스 16500" d="M736.928,2341.366l.529,6.089,1.767.139-.117-5.234Z" transform="translate(-724.679 -2320.83)" fill="#ffc7c0"/>
      <g id="그룹_5698" data-name="그룹 5698" transform="translate(7.101 25.992)">
        <g id="그룹_5694" data-name="그룹 5694" transform="translate(2.464)">
          <path id="패스_16501" data-name="패스 16501" d="M742.544,2350.282l.8.452-.583.33-.783-.466Z" transform="translate(-733.408 -2345.346)" fill="#464847"/>
          <path id="패스_16502" data-name="패스 16502" d="M741.728,2349.812l.8.452-.583.331-.783-.466Z" transform="translate(-733.543 -2345.424)" fill="#464847"/>
          <path id="패스_16503" data-name="패스 16503" d="M740.911,2349.341l.8.452-.583.33-.782-.466Z" transform="translate(-733.679 -2345.502)" fill="#464847"/>
          <path id="패스_16504" data-name="패스 16504" d="M740.094,2348.871l.8.452-.583.33-.783-.466Z" transform="translate(-733.814 -2345.58)" fill="#464847"/>
          <path id="패스_16505" data-name="패스 16505" d="M739.277,2348.4l1.759,1-.583.33-1.748-1.014Z" transform="translate(-733.95 -2345.658)" fill="#464847"/>
          <path id="패스_16506" data-name="패스 16506" d="M738.461,2347.929l.8.452-.583.33-.782-.466Z" transform="translate(-734.084 -2345.736)" fill="#464847"/>
          <path id="패스_16507" data-name="패스 16507" d="M737.644,2347.459l.8.452-.583.33-.783-.466Z" transform="translate(-734.219 -2345.813)" fill="#464847"/>
          <path id="패스_16508" data-name="패스 16508" d="M736.828,2346.988l.8.452-.583.33-.783-.466Z" transform="translate(-734.355 -2345.891)" fill="#464847"/>
          <path id="패스_16509" data-name="패스 16509" d="M736.01,2346.518l.952.549-.565.317-.952-.548Z" transform="translate(-734.489 -2345.969)" fill="#464847"/>
          <path id="패스_16510" data-name="패스 16510" d="M735.194,2346.047l.8.452-.583.33-.783-.466Z" transform="translate(-734.625 -2346.047)" fill="#464847"/>
          <path id="패스_16511" data-name="패스 16511" d="M739.485,2346.63l-1.515.851,2.914,1.732,1.555-.886Z" transform="translate(-734.071 -2345.95)" fill="#464847"/>
        </g>
        <g id="그룹_5695" data-name="그룹 5695" transform="translate(1.643 0.483)">
          <path id="패스_16512" data-name="패스 16512" d="M741.838,2350.7l.8.452-.583.33-.783-.466Z" transform="translate(-732.705 -2345.761)" fill="#464847"/>
          <path id="패스_16513" data-name="패스 16513" d="M741.022,2350.226l.8.452-.583.33-.783-.466Z" transform="translate(-732.84 -2345.839)" fill="#464847"/>
          <path id="패스_16514" data-name="패스 16514" d="M740.2,2349.756l.8.452-.583.33-.783-.466Z" transform="translate(-732.975 -2345.917)" fill="#464847"/>
          <path id="패스_16515" data-name="패스 16515" d="M739.39,2349.285l.8.454-.583.33-.782-.466Z" transform="translate(-733.11 -2345.994)" fill="#464847"/>
          <path id="패스_16516" data-name="패스 16516" d="M738.573,2348.813l.8.452-.583.33-.783-.466Z" transform="translate(-733.245 -2346.072)" fill="#464847"/>
          <path id="패스_16517" data-name="패스 16517" d="M737.756,2348.344l.8.452-.583.33-.783-.466Z" transform="translate(-733.38 -2346.15)" fill="#464847"/>
          <path id="패스_16518" data-name="패스 16518" d="M736.939,2347.874l.8.452-.583.33-.783-.466Z" transform="translate(-733.516 -2346.228)" fill="#464847"/>
          <path id="패스_16519" data-name="패스 16519" d="M736.123,2347.4l.8.452-.583.33-.782-.466Z" transform="translate(-733.651 -2346.306)" fill="#464847"/>
          <path id="패스_16520" data-name="패스 16520" d="M735.342,2346.933l.8.452-.822.484-.8-.452Z" transform="translate(-733.822 -2346.384)" fill="#464847"/>
          <path id="패스_16521" data-name="패스 16521" d="M734.489,2346.462l.8.452-.583.33-.782-.467Z" transform="translate(-733.921 -2346.462)" fill="#464847"/>
        </g>
        <g id="그룹_5696" data-name="그룹 5696" transform="translate(0.822 0.967)">
          <path id="패스_16522" data-name="패스 16522" d="M741.129,2351.112l.8.452-.583.33-.783-.466Z" transform="translate(-732 -2346.176)" fill="#464847"/>
          <path id="패스_16523" data-name="패스 16523" d="M740.316,2350.642l.8.452-.583.33-.783-.466Z" transform="translate(-732.135 -2346.254)" fill="#464847"/>
          <path id="패스_16524" data-name="패스 16524" d="M739.5,2350.17l.8.453-.583.33-.782-.466Z" transform="translate(-732.27 -2346.331)" fill="#464847"/>
          <path id="패스_16525" data-name="패스 16525" d="M738.683,2349.7l.8.452-.583.33-.783-.466Z" transform="translate(-732.405 -2346.41)" fill="#464847"/>
          <path id="패스_16526" data-name="패스 16526" d="M737.867,2349.23l.8.452-.583.33-.783-.466Z" transform="translate(-732.54 -2346.487)" fill="#464847"/>
          <path id="패스_16527" data-name="패스 16527" d="M737.048,2348.759l.8.452-.583.33-.783-.466Z" transform="translate(-732.676 -2346.565)" fill="#464847"/>
          <path id="패스_16528" data-name="패스 16528" d="M736.233,2348.289l.8.453-.583.33-.782-.466Z" transform="translate(-732.811 -2346.643)" fill="#464847"/>
          <path id="패스_16529" data-name="패스 16529" d="M735.287,2347.736l.952.549-.583.33-.952-.548Z" transform="translate(-732.97 -2346.734)" fill="#464847"/>
          <path id="패스_16530" data-name="패스 16530" d="M734.6,2347.347l.8.453-.583.33-.783-.466Z" transform="translate(-733.081 -2346.799)" fill="#464847"/>
          <path id="패스_16531" data-name="패스 16531" d="M733.784,2346.877l.8.452-.583.33-.782-.466Z" transform="translate(-733.216 -2346.877)" fill="#464847"/>
        </g>
        <g id="그룹_5697" data-name="그룹 5697" transform="translate(0 1.45)">
          <path id="패스_16532" data-name="패스 16532" d="M740.429,2351.526l.8.452-.583.33-.782-.466Z" transform="translate(-731.294 -2346.59)" fill="#464847"/>
          <path id="패스_16533" data-name="패스 16533" d="M739.612,2351.056l.8.453-.583.33-.783-.467Z" transform="translate(-731.43 -2346.668)" fill="#464847"/>
          <path id="패스_16534" data-name="패스 16534" d="M738.8,2350.585l.8.452-.583.33-.783-.466Z" transform="translate(-731.565 -2346.746)" fill="#464847"/>
          <path id="패스_16535" data-name="패스 16535" d="M737.977,2350.115l.952.549-.565.317-.952-.549Z" transform="translate(-731.7 -2346.824)" fill="#464847"/>
          <path id="패스_16536" data-name="패스 16536" d="M737.161,2349.644l.952.549-.565.317-.951-.549Z" transform="translate(-731.835 -2346.902)" fill="#464847"/>
          <path id="패스_16537" data-name="패스 16537" d="M736.345,2349.173l.952.549-.564.317-.952-.549Z" transform="translate(-731.97 -2346.979)" fill="#464847"/>
          <path id="패스_16538" data-name="패스 16538" d="M735.528,2348.7l.8.454-.583.33-.782-.466Z" transform="translate(-732.105 -2347.057)" fill="#464847"/>
          <path id="패스_16539" data-name="패스 16539" d="M734.711,2348.232l.8.452-.583.33-.782-.466Z" transform="translate(-732.241 -2347.135)" fill="#464847"/>
          <path id="패스_16540" data-name="패스 16540" d="M733.9,2347.762l.8.452-.583.33-.782-.466Z" transform="translate(-732.376 -2347.213)" fill="#464847"/>
          <path id="패스_16541" data-name="패스 16541" d="M733.079,2347.291l.8.452-.583.33-.782-.466Z" transform="translate(-732.511 -2347.291)" fill="#464847"/>
        </g>
      </g>
      <path id="패스_16542" data-name="패스 16542" d="M730.666,2348.652l-1.414-8.261,11.268,5.864,2.029,8.775Z" transform="translate(-725.95 -2320.992)" fill="#d6386e"/>
      <path id="패스_16543" data-name="패스 16543" d="M735.081,2347.261c-.24.189-.725-.027-1.082-.482s-.453-.977-.212-1.166.724.027,1.082.482S735.321,2347.072,735.081,2347.261Z" transform="translate(-725.221 -2320.139)" fill="#fff"/>
      <path id="패스_16544" data-name="패스 16544" d="M747.964,2331.726a6.7,6.7,0,0,1-3.03,2.331l.966,2.185,3.2-2.781A16.081,16.081,0,0,0,747.964,2331.726Z" transform="translate(-723.354 -2322.426)" fill="#435279"/>
      <g id="그룹_5699" data-name="그룹 5699" transform="translate(18.1)">
        <path id="패스_16545" data-name="패스 16545" d="M748.811,2325.7a3.929,3.929,0,0,0-5.134-1.549,2.925,2.925,0,0,0-1.72,2.885l.473,1.8.284.117,3.357-.486A6.43,6.43,0,0,0,748.811,2325.7Z" transform="translate(-741.948 -2323.747)" fill="#292a47"/>
        <path id="패스_16546" data-name="패스 16546" d="M748.7,2325.428a6.423,6.423,0,0,1-2.741,2.767l-3.357.486c1.784,1.155,3.682,3.17,5.227,2.513,1.542-1.006.428-1.25,1.4-3.051A3.115,3.115,0,0,0,748.7,2325.428Z" transform="translate(-741.839 -2323.469)" fill="#54556c"/>
      </g>
      <path id="패스_16547" data-name="패스 16547" d="M745.27,2334.129a13.318,13.318,0,0,1-.5-2.829l-1.865.285.3,3.661Z" transform="translate(-723.689 -2322.496)" fill="#435279"/>
      <path id="패스_16548" data-name="패스 16548" d="M741.964,2326.574s-.7,6.865,2.633,6.527a3.839,3.839,0,0,0,3.287-2.992s1.26-1.464.466-1.734a.875.875,0,0,0-1.132.5.848.848,0,0,0-.034.107s-.27.81-.518-.091c0,0,.2-2.318-1.431-1.936C745.236,2326.956,742.571,2327.722,741.964,2326.574Z" transform="translate(-723.856 -2323.279)" fill="#ffc7c0"/>
      <path id="패스_16549" data-name="패스 16549" d="M749.954,2346.59l-7.744,1.353.6,1.353,9.332-.72Z" transform="translate(-723.805 -2319.966)" fill="#ffc7c0"/>
      <path id="패스_16550" data-name="패스 16550" d="M740.386,2348.851a.465.465,0,0,1-.521-.266l.549-.275a.467.467,0,0,1-.629-.2l-.016-.035,1.3-.651,1.659.269,1.264-.023.254,1.159-1.049.349-1.134.132-.635.148c-.49.3-.654-.116-.654-.116l.668-.336-.473.111c-.608.37-.816-.15-.816-.15Z" transform="translate(-724.209 -2319.827)" fill="#ffc7c0"/>
      <path id="패스_16551" data-name="패스 16551" d="M729.093,2366.745s1.108.176,1.184.7.479.413.479.413l.612-.21a3.039,3.039,0,0,1-.312,1.333s-3.263,2.923-4.318,2.171c-1.205-.865,1.4-2.914,1.4-2.914A2.046,2.046,0,0,0,729.093,2366.745Z" transform="translate(-726.419 -2316.629)" fill="#30366b"/>
    </g>
  </g>
</svg>
