<svg xmlns="http://www.w3.org/2000/svg" width="60" height="60" viewBox="0 0 60 60">
  <g id="그룹_10209" data-name="그룹 10209" transform="translate(16195.739 17490)">
    <rect id="사각형_148507" data-name="사각형 148507" width="60" height="60" transform="translate(-16195.739 -17490)" fill="none"/>
    <g id="그룹_10208" data-name="그룹 10208" transform="translate(1.412 1.313)">
      <path id="패스_84032" data-name="패스 84032" d="M665.716,34.44c0,3.725-5.912,6.745-13.2,6.745s-13.2-3.02-13.2-6.745,5.911-6.745,13.2-6.745,13.2,3.02,13.2,6.745" transform="translate(-16826 -17491.156)" fill="#ffd281"/>
      <path id="패스_84033" data-name="패스 84033" d="M665.716,34.44c0,3.725-5.912,6.745-13.2,6.745s-13.2-3.02-13.2-6.745,5.911-6.745,13.2-6.745S665.716,30.715,665.716,34.44Z" transform="translate(-16826 -17491.156)" fill="none" stroke="#3a3533" stroke-linecap="round" stroke-linejoin="round" stroke-width="0.5"/>
      <path id="패스_84034" data-name="패스 84034" d="M665.716,30.146c0,3.725-5.912,6.745-13.2,6.745s-13.2-3.02-13.2-6.745,5.911-6.745,13.2-6.745,13.2,3.02,13.2,6.745" transform="translate(-16826 -17490.867)" fill="#ffd281"/>
      <path id="패스_84035" data-name="패스 84035" d="M665.716,25.851c0,3.725-5.912,6.745-13.2,6.745s-13.2-3.02-13.2-6.745,5.911-6.745,13.2-6.745,13.2,3.02,13.2,6.745" transform="translate(-16826 -17490.578)" fill="#ffd281"/>
      <path id="패스_84036" data-name="패스 84036" d="M665.716,30.146c0,3.725-5.912,6.745-13.2,6.745s-13.2-3.02-13.2-6.745,5.911-6.745,13.2-6.745S665.716,26.421,665.716,30.146Z" transform="translate(-16826 -17490.867)" fill="none" stroke="#3a3533" stroke-linecap="round" stroke-linejoin="round" stroke-width="0.5"/>
      <path id="패스_84037" data-name="패스 84037" d="M665.716,25.851c0,3.725-5.912,6.745-13.2,6.745s-13.2-3.02-13.2-6.745,5.911-6.745,13.2-6.745S665.716,22.126,665.716,25.851Z" transform="translate(-16826 -17490.578)" fill="none" stroke="#3a3533" stroke-linecap="round" stroke-linejoin="round" stroke-width="0.5"/>
      <path id="패스_84038" data-name="패스 84038" d="M665.716,21.557c0,3.725-5.912,6.745-13.2,6.745s-13.2-3.02-13.2-6.745,5.911-6.745,13.2-6.745S665.716,17.832,665.716,21.557Z" transform="translate(-16826 -17490.289)" fill="none" stroke="#3a3533" stroke-linecap="round" stroke-linejoin="round" stroke-width="0.5"/>
      <path id="패스_84039" data-name="패스 84039" d="M652.512,41.672c-7.292,0-13.2-3.02-13.2-6.745v2.764c0,3.725,5.912,6.745,13.2,6.745s13.2-3.02,13.2-6.745V34.927c0,3.725-5.912,6.745-13.2,6.745" transform="translate(-16826 -17491.645)" fill="#ffae64"/>
      <path id="패스_84040" data-name="패스 84040" d="M652.512,37.377c-7.292,0-13.2-3.02-13.2-6.745V33.4c0,3.725,5.912,6.745,13.2,6.745s13.2-3.02,13.2-6.745V30.632c0,3.725-5.912,6.745-13.2,6.745" transform="translate(-16826 -17491.355)" fill="#ffae64"/>
      <path id="패스_84041" data-name="패스 84041" d="M652.512,33.083c-7.292,0-13.2-3.02-13.2-6.745V29.1c0,3.725,5.912,6.745,13.2,6.745s13.2-3.02,13.2-6.745V26.338c0,3.725-5.912,6.745-13.2,6.745" transform="translate(-16826 -17491.066)" fill="#ffae64"/>
      <path id="패스_84042" data-name="패스 84042" d="M652.512,28.788c-7.292,0-13.2-3.019-13.2-6.744v2.763c0,3.726,5.912,6.746,13.2,6.746s13.2-3.02,13.2-6.746V22.044c0,3.725-5.912,6.744-13.2,6.744" transform="translate(-16826 -17490.777)" fill="#ffae64"/>
      <path id="패스_84043" data-name="패스 84043" d="M652.512,41.672c-7.292,0-13.2-3.02-13.2-6.745v2.764c0,3.725,5.912,6.745,13.2,6.745s13.2-3.02,13.2-6.745V34.927C665.716,38.652,659.8,41.672,652.512,41.672Z" transform="translate(-16826 -17491.645)" fill="none" stroke="#3a3533" stroke-linecap="round" stroke-linejoin="round" stroke-width="0.5"/>
      <path id="패스_84044" data-name="패스 84044" d="M652.512,37.377c-7.292,0-13.2-3.02-13.2-6.745V33.4c0,3.725,5.912,6.745,13.2,6.745s13.2-3.02,13.2-6.745V30.632C665.716,34.357,659.8,37.377,652.512,37.377Z" transform="translate(-16826 -17491.355)" fill="none" stroke="#3a3533" stroke-linecap="round" stroke-linejoin="round" stroke-width="0.5"/>
      <path id="패스_84045" data-name="패스 84045" d="M652.512,33.083c-7.292,0-13.2-3.02-13.2-6.745V29.1c0,3.725,5.912,6.745,13.2,6.745s13.2-3.02,13.2-6.745V26.338C665.716,30.063,659.8,33.083,652.512,33.083Z" transform="translate(-16826 -17491.066)" fill="none" stroke="#3a3533" stroke-linecap="round" stroke-linejoin="round" stroke-width="0.5"/>
      <path id="패스_84046" data-name="패스 84046" d="M665.716,21.557c0,3.725-5.912,6.745-13.2,6.745s-13.2-3.02-13.2-6.745,5.911-6.745,13.2-6.745,13.2,3.02,13.2,6.745" transform="translate(-16826 -17490.289)" fill="#ffd281"/>
      <path id="패스_84047" data-name="패스 84047" d="M652.512,28.788c-7.292,0-13.2-3.019-13.2-6.744v2.763c0,3.726,5.912,6.746,13.2,6.746s13.2-3.02,13.2-6.746V22.044C665.716,25.769,659.8,28.788,652.512,28.788Z" transform="translate(-16826 -17490.777)" fill="none" stroke="#3a3533" stroke-linecap="round" stroke-linejoin="round" stroke-width="0.5"/>
      <path id="패스_84048" data-name="패스 84048" d="M665.716,17.263c0,3.725-5.912,6.745-13.2,6.745s-13.2-3.02-13.2-6.745,5.911-6.745,13.2-6.745,13.2,3.02,13.2,6.745" transform="translate(-16826 -17490)" fill="#ffd281"/>
      <path id="패스_84049" data-name="패스 84049" d="M652.512,24.494c-7.292,0-13.2-3.02-13.2-6.745v2.764c0,3.725,5.912,6.745,13.2,6.745s13.2-3.02,13.2-6.745V17.749c0,3.725-5.912,6.745-13.2,6.745" transform="translate(-16826 -17490.486)" fill="#ffae64"/>
      <path id="패스_84050" data-name="패스 84050" d="M652.512,24.494c-7.292,0-13.2-3.02-13.2-6.745v2.764c0,3.725,5.912,6.745,13.2,6.745s13.2-3.02,13.2-6.745V17.749C665.716,21.474,659.8,24.494,652.512,24.494Z" transform="translate(-16826 -17490.486)" fill="none" stroke="#3a3533" stroke-linecap="round" stroke-linejoin="round" stroke-width="0.5"/>
      <path id="패스_84051" data-name="패스 84051" d="M679.468,35.662a12.076,12.076,0,1,1-12.077-12.077,12.077,12.077,0,0,1,12.077,12.077" transform="translate(-16827.078 -17490.881)" fill="#ffd281"/>
      <path id="패스_84052" data-name="패스 84052" d="M679.468,35.662a12.076,12.076,0,1,1-12.077-12.077A12.077,12.077,0,0,1,679.468,35.662Z" transform="translate(-16827.078 -17490.881)" fill="none" stroke="#3a3533" stroke-linecap="round" stroke-linejoin="round" stroke-width="0.5"/>
      <path id="패스_84053" data-name="패스 84053" d="M673.942,34.822h-1.023l.927-3.47a.7.7,0,0,0-1.35-.36l-1.024,3.83h-1.9l-1.025-3.83a.7.7,0,0,0-1.349,0l-1.024,3.83h-1.9l-1.024-3.83a.7.7,0,0,0-1.35.36l.928,3.47h-1.237a.7.7,0,1,0,0,1.4h1.61l1.348,5.041a.7.7,0,0,0,1.35,0l1.348-5.041H668.5l1.347,5.041a.7.7,0,0,0,1.351,0l1.346-5.041h1.4a.7.7,0,1,0,0-1.4m-8.716,3.552-.575-2.155H665.8Zm2.4-3.552.253-.945.252.945Zm2.9,3.551-.575-2.154h1.15Z" transform="translate(-16827.455 -17491.344)" fill="#fff"/>
      <path id="패스_84054" data-name="패스 84054" d="M665.716,17.263c0,3.725-5.912,6.745-13.2,6.745s-13.2-3.02-13.2-6.745,5.911-6.745,13.2-6.745S665.716,13.538,665.716,17.263Z" transform="translate(-16826 -17490)" fill="none" stroke="#3a3533" stroke-linecap="round" stroke-linejoin="round" stroke-width="0.5"/>
    </g>
  </g>
</svg>
