<svg id="그룹_8872" data-name="그룹 8872" xmlns="http://www.w3.org/2000/svg" xmlns:xlink="http://www.w3.org/1999/xlink" width="36.363" height="45.222" viewBox="0 0 36.363 45.222">
  <defs>
    <clipPath id="clip-path">
      <rect id="사각형_7247" data-name="사각형 7247" width="36.363" height="45.222" fill="none"/>
    </clipPath>
    <clipPath id="clip-path-3">
      <rect id="사각형_7245" data-name="사각형 7245" width="23.614" height="13.228" fill="none"/>
    </clipPath>
  </defs>
  <g id="그룹_8863" data-name="그룹 8863" clip-path="url(#clip-path)">
    <g id="그룹_8862" data-name="그룹 8862">
      <g id="그룹_8861" data-name="그룹 8861" clip-path="url(#clip-path)">
        <path id="패스_20580" data-name="패스 20580" d="M43.879,62.356a76.464,76.464,0,0,1-28.658,0V51.468a76.478,76.478,0,0,0,28.658,0Z" transform="translate(-10.118 -34.212)" fill="#4dbaae"/>
        <path id="패스_20581" data-name="패스 20581" d="M43.879,51.463v10.89a76.412,76.412,0,0,1-28.656,0V51.463q2.163.412,4.339.7a76.294,76.294,0,0,0,20.774-.107q1.775-.251,3.544-.59" transform="translate(-10.119 -34.209)" fill="#4dbaae"/>
        <path id="패스_20582" data-name="패스 20582" d="M18.39,55.267a77.992,77.992,0,0,0,13.044,1.1,77.988,77.988,0,0,0,13.043-1.1v8.279a75.425,75.425,0,0,1-13.043,1.14,75.429,75.429,0,0,1-13.044-1.14Zm26.422-.4a77.6,77.6,0,0,1-13.379,1.165,77.6,77.6,0,0,1-13.379-1.165v8.958a75.743,75.743,0,0,0,13.379,1.194,75.739,75.739,0,0,0,13.379-1.194Z" transform="translate(-12.002 -36.473)" fill="#f5f1fd"/>
        <path id="패스_20583" data-name="패스 20583" d="M53.186,64.926a2.122,2.122,0,1,1-1.9,2.11,2.017,2.017,0,0,1,1.9-2.11m0-.335a2.455,2.455,0,1,0,2.239,2.446,2.349,2.349,0,0,0-2.239-2.446" transform="translate(-33.866 -42.935)" fill="#f5f1fd"/>
        <g id="그룹_8860" data-name="그룹 8860" transform="translate(10.148 18.039)" style="mix-blend-mode: multiply;isolation: isolate">
          <g id="그룹_8859" data-name="그룹 8859">
            <g id="그룹_8858" data-name="그룹 8858" clip-path="url(#clip-path-3)">
              <path id="패스_20584" data-name="패스 20584" d="M30.266,53.8l14.7,13.228L53.88,54.5s-6.875.644-5.093-.684A76.292,76.292,0,0,1,30.266,53.8" transform="translate(-30.266 -53.803)" fill="#4dbaae"/>
            </g>
          </g>
        </g>
        <path id="패스_20585" data-name="패스 20585" d="M5.462,8.256S15.013,21.97,29.414,26.547L39.994,16.183S22.658,12.564,16.321,0Z" transform="translate(-3.631)" fill="#4dbaae"/>
        <path id="패스_20586" data-name="패스 20586" d="M18.535,4.761C21.39,9.571,26.243,13.726,32.6,16.795a49.644,49.644,0,0,0,7.5,2.892l-8.4,8.228C20.538,24.075,12.412,14.59,9.88,11.341Zm.1-.5L9.408,11.278C11.574,14.1,20.039,24.339,31.784,28.3l8.957-8.775a49.236,49.236,0,0,1-8-3.031c-6.46-3.119-11.314-7.332-14.11-12.229" transform="translate(-6.254 -2.834)" fill="#f5f1fd"/>
        <path id="패스_20587" data-name="패스 20587" d="M46.884,35.161h0a1.883,1.883,0,0,1,1.264.452,2.507,2.507,0,0,1-.16,3.494,2.989,2.989,0,0,1-2.179,1.068,1.881,1.881,0,0,1-1.264-.452,1.97,1.97,0,0,1-.633-1.587,3.078,3.078,0,0,1,.792-1.907,2.99,2.99,0,0,1,2.179-1.068m0-.335a3.309,3.309,0,0,0-2.431,1.182,2.834,2.834,0,0,0-.129,3.967,2.22,2.22,0,0,0,1.485.535,3.309,3.309,0,0,0,2.431-1.182,2.834,2.834,0,0,0,.128-3.967,2.219,2.219,0,0,0-1.485-.535" transform="translate(-28.966 -23.15)" fill="#f5f1fd"/>
        <path id="패스_20588" data-name="패스 20588" d="M42.373,96.22H17.754a2.707,2.707,0,0,1-2.707-2.707V79.428a2.707,2.707,0,0,1,2.707-2.707H42.373a2.707,2.707,0,0,1,2.707,2.707V93.513a2.707,2.707,0,0,1-2.707,2.707" transform="translate(-10.002 -50.998)" fill="#367089"/>
        <path id="패스_20589" data-name="패스 20589" d="M39.03,96.22H14.411A2.707,2.707,0,0,1,11.7,93.513V79.428a2.707,2.707,0,0,1,2.707-2.707H39.03a2.707,2.707,0,0,1,2.707,2.707V93.513A2.707,2.707,0,0,1,39.03,96.22" transform="translate(-7.78 -50.998)" fill="#658eaa"/>
        <path id="패스_20590" data-name="패스 20590" d="M12.716,102.373H3.487a3.487,3.487,0,0,1,0-6.973h9.23a3.487,3.487,0,1,1,0,6.973" transform="translate(0 -63.414)" fill="#367089"/>
        <path id="패스_20591" data-name="패스 20591" d="M30.923,101.69A2.073,2.073,0,1,1,33,103.763a2.073,2.073,0,0,1-2.073-2.073" transform="translate(-20.555 -66.218)" fill="#d3dbe5"/>
      </g>
    </g>
  </g>
</svg>
